<svg width="242" height="70" viewBox="0 0 242 70" fill="none" xmlns="http://www.w3.org/2000/svg">
<path d="M31.2183 49.4034V25.1647L41.3829 15.0001L51.5475 25.1647L53.1113 26.7285" stroke="#E6E8EE" stroke-width="11.1111"/>
<path d="M10.8892 49.4034V25.1647L21.0538 15.0001L31.2184 25.1647V49.4034" stroke="#E6E8EE" stroke-width="11.1111"/>
<path d="M77.5889 41.3777C76.7963 41.3777 76 41.3148 75.2 41.1889C74.4074 41.0703 73.6741 40.9 73 40.6777V37.7444C73.4667 37.9 73.963 38.0333 74.4889 38.1444C75.0148 38.2481 75.5407 38.3296 76.0667 38.3889C76.6 38.4481 77.1037 38.4777 77.5778 38.4777C78.6815 38.4777 79.463 38.3111 79.9222 37.9777C80.3815 37.637 80.6111 37.1629 80.6111 36.5555C80.6111 36.0444 80.4407 35.6444 80.1 35.3555C79.7667 35.0666 79.1407 34.8037 78.2222 34.5666L76.9778 34.2444C75.5407 33.8815 74.4519 33.3185 73.7111 32.5555C72.9778 31.7852 72.6111 30.7703 72.6111 29.5111C72.6111 27.9407 73.1778 26.7148 74.3111 25.8333C75.4519 24.9518 77.1667 24.5111 79.4556 24.5111C80.1963 24.5111 80.9 24.5555 81.5667 24.6444C82.2407 24.7259 82.837 24.8407 83.3556 24.9889V27.9222C82.8296 27.7592 82.2444 27.6333 81.6 27.5444C80.9556 27.4555 80.3074 27.4111 79.6556 27.4111C78.7963 27.4111 78.1148 27.4926 77.6111 27.6555C77.1074 27.8111 76.7444 28.0333 76.5222 28.3222C76.3074 28.6111 76.2 28.9444 76.2 29.3222C76.2 29.8037 76.3481 30.1815 76.6444 30.4555C76.9407 30.7296 77.4963 30.9777 78.3111 31.2L79.5444 31.5222C80.6111 31.7815 81.4889 32.1259 82.1778 32.5555C82.8667 32.9777 83.3741 33.5 83.7 34.1222C84.0333 34.737 84.2 35.4666 84.2 36.3111C84.2 37.3629 83.937 38.2703 83.4111 39.0333C82.8926 39.7889 82.1407 40.3703 81.1556 40.7777C80.1704 41.1777 78.9815 41.3777 77.5889 41.3777ZM96.1594 41.1666L90.426 32.7889L95.8149 24.7222H99.6149L93.9594 33.1889L94.0149 32.2555L100.093 41.1666H96.1594ZM86.2816 41.1666V24.7222H89.8927V41.1666H86.2816ZM89.3927 34.3444V31.1666H91.8483V34.3444H89.3927ZM111.293 41.3555C110.841 41.3555 110.344 41.3407 109.804 41.3111C109.27 41.2889 108.73 41.2518 108.181 41.2C107.641 41.1555 107.133 41.1 106.659 41.0333V25.0889C107.17 24.9777 107.718 24.8815 108.304 24.8C108.889 24.7111 109.489 24.6444 110.104 24.6C110.726 24.5481 111.337 24.5222 111.937 24.5222C113.567 24.5222 114.896 24.6926 115.926 25.0333C116.963 25.3666 117.726 25.874 118.215 26.5555C118.704 27.2296 118.948 28.0777 118.948 29.1C118.948 29.7074 118.83 30.2666 118.593 30.7777C118.363 31.2815 118.026 31.7074 117.581 32.0555C117.137 32.4037 116.596 32.6407 115.959 32.7666L115.97 32.6222C117.015 32.7703 117.844 33.174 118.459 33.8333C119.081 34.4852 119.393 35.3926 119.393 36.5555C119.393 37.3185 119.248 38 118.959 38.6C118.67 39.1926 118.207 39.6963 117.57 40.1111C116.933 40.5185 116.096 40.8296 115.059 41.0444C114.03 41.2518 112.774 41.3555 111.293 41.3555ZM112.259 38.7222C113.222 38.7222 113.978 38.637 114.526 38.4666C115.081 38.2963 115.474 38.0407 115.704 37.7C115.941 37.3592 116.059 36.9259 116.059 36.4C116.059 35.6074 115.811 35.0296 115.315 34.6666C114.826 34.2963 114.018 34.1111 112.893 34.1111H109.804V31.4111H112.548C113.281 31.4111 113.867 31.3333 114.304 31.1777C114.748 31.0148 115.067 30.7777 115.259 30.4666C115.459 30.1555 115.559 29.7629 115.559 29.2889C115.559 28.5407 115.322 28 114.848 27.6666C114.374 27.3259 113.555 27.1555 112.393 27.1555C111.97 27.1555 111.581 27.174 111.226 27.2111C110.87 27.2407 110.522 27.2852 110.181 27.3444V38.6222C110.559 38.6592 110.911 38.6852 111.237 38.7C111.563 38.7148 111.904 38.7222 112.259 38.7222ZM128.326 41.3777C126.726 41.3777 125.415 41.1222 124.393 40.6111C123.371 40.1 122.615 39.3259 122.126 38.2889C121.637 37.2444 121.393 35.9333 121.393 34.3555V24.7222H124.993V34.7111C124.993 36.0148 125.271 36.9592 125.826 37.5444C126.382 38.1296 127.215 38.4222 128.326 38.4222C129.437 38.4222 130.267 38.1296 130.815 37.5444C131.371 36.9592 131.648 36.0148 131.648 34.7111V24.7222H135.182V34.3555C135.182 35.9333 134.941 37.2444 134.46 38.2889C133.978 39.3259 133.23 40.1 132.215 40.6111C131.2 41.1222 129.904 41.3777 128.326 41.3777ZM138.061 41.1666V24.7222H141.672V41.1666H138.061ZM144.637 41.1666V24.7222H148.248V38.1666H155.803V41.1666H144.637ZM161.908 41.3333C161.449 41.3333 160.967 41.3222 160.464 41.3C159.96 41.2852 159.449 41.2592 158.93 41.2222C158.412 41.1852 157.901 41.1333 157.397 41.0666V25.0889C157.908 24.9777 158.453 24.8815 159.03 24.8C159.616 24.7185 160.212 24.6555 160.819 24.6111C161.427 24.5666 162.023 24.5444 162.608 24.5444C165.593 24.5444 167.845 25.2259 169.364 26.5889C170.89 27.9444 171.653 30.0629 171.653 32.9444C171.653 34.9074 171.293 36.5074 170.575 37.7444C169.856 38.974 168.775 39.8815 167.33 40.4666C165.886 41.0444 164.079 41.3333 161.908 41.3333ZM162.841 38.4C163.982 38.4 164.93 38.2222 165.686 37.8666C166.449 37.5037 167.016 36.9222 167.386 36.1222C167.764 35.3148 167.953 34.2518 167.953 32.9333C167.953 31.6222 167.76 30.5666 167.375 29.7666C166.997 28.9592 166.43 28.374 165.675 28.0111C164.919 27.6407 163.982 27.4555 162.864 27.4555C162.582 27.4555 162.275 27.4703 161.941 27.5C161.608 27.5296 161.297 27.5703 161.008 27.6222V38.3222C161.312 38.3518 161.612 38.374 161.908 38.3889C162.212 38.3963 162.523 38.4 162.841 38.4ZM174.064 41.1666V24.7222H185.608V27.6111H177.63V38.2777H185.719V41.1666H174.064ZM176.208 34.2V31.3111H184.475V34.2H176.208ZM187.996 41.1666V25.0889C188.492 24.9777 189.022 24.8815 189.585 24.8C190.148 24.7111 190.729 24.6444 191.329 24.6C191.929 24.5481 192.533 24.5222 193.14 24.5222C195.503 24.5222 197.281 24.9518 198.474 25.8111C199.666 26.6629 200.263 27.9963 200.263 29.8111C200.263 30.9815 199.981 31.9629 199.418 32.7555C198.855 33.5407 198.052 34.1333 197.007 34.5333C195.97 34.9333 194.729 35.1333 193.285 35.1333C192.959 35.1333 192.659 35.1296 192.385 35.1222C192.111 35.1074 191.829 35.0926 191.54 35.0777V41.1666H187.996ZM197.674 41.1666L192.385 33.5666H196.252L201.618 41.1666H197.674ZM193.352 32.4444C194.544 32.4444 195.429 32.237 196.007 31.8222C196.585 31.4074 196.874 30.737 196.874 29.8111C196.874 29.2037 196.752 28.7074 196.507 28.3222C196.263 27.9296 195.892 27.6407 195.396 27.4555C194.9 27.2703 194.27 27.1777 193.507 27.1777C193.129 27.1777 192.781 27.1926 192.463 27.2222C192.144 27.2518 191.837 27.2963 191.54 27.3555V32.3555C191.755 32.3703 191.955 32.3889 192.14 32.4111C192.333 32.4259 192.526 32.437 192.718 32.4444C192.918 32.4444 193.129 32.4444 193.352 32.4444ZM207.124 41.3777C206.332 41.3777 205.536 41.3148 204.736 41.1889C203.943 41.0703 203.21 40.9 202.536 40.6777V37.7444C203.002 37.9 203.499 38.0333 204.024 38.1444C204.55 38.2481 205.076 38.3296 205.602 38.3889C206.136 38.4481 206.639 38.4777 207.113 38.4777C208.217 38.4777 208.999 38.3111 209.458 37.9777C209.917 37.637 210.147 37.1629 210.147 36.5555C210.147 36.0444 209.976 35.6444 209.636 35.3555C209.302 35.0666 208.676 34.8037 207.758 34.5666L206.513 34.2444C205.076 33.8815 203.987 33.3185 203.247 32.5555C202.513 31.7852 202.147 30.7703 202.147 29.5111C202.147 27.9407 202.713 26.7148 203.847 25.8333C204.987 24.9518 206.702 24.5111 208.991 24.5111C209.732 24.5111 210.436 24.5555 211.102 24.6444C211.776 24.7259 212.373 24.8407 212.891 24.9889V27.9222C212.365 27.7592 211.78 27.6333 211.136 27.5444C210.491 27.4555 209.843 27.4111 209.191 27.4111C208.332 27.4111 207.65 27.4926 207.147 27.6555C206.643 27.8111 206.28 28.0333 206.058 28.3222C205.843 28.6111 205.736 28.9444 205.736 29.3222C205.736 29.8037 205.884 30.1815 206.18 30.4555C206.476 30.7296 207.032 30.9777 207.847 31.2L209.08 31.5222C210.147 31.7815 211.024 32.1259 211.713 32.5555C212.402 32.9777 212.91 33.5 213.236 34.1222C213.569 34.737 213.736 35.4666 213.736 36.3111C213.736 37.3629 213.473 38.2703 212.947 39.0333C212.428 39.7889 211.676 40.3703 210.691 40.7777C209.706 41.1777 208.517 41.3777 207.124 41.3777Z" fill="#E6E8EE"/>
</svg>
